<svg xmlns="http://www.w3.org/2000/svg" xmlns:xlink="http://www.w3.org/1999/xlink" width="500" zoomAndPan="magnify" viewBox="0 0 375 374.999991" height="500" preserveAspectRatio="xMidYMid meet" version="1.0"><defs><g/></defs><g fill="#ff5055" fill-opacity="0.302"><g transform="translate(29.296519, 209.980064)"><g><path d="M 10.921875 -19.984375 C 13.335938 -22.148438 16.546875 -24.347656 20.546875 -26.578125 L 27.1875 -21.359375 C 26.894531 -18.429688 26.414062 -15.90625 25.75 -13.78125 C 25.09375 -11.65625 24.015625 -9.828125 22.515625 -8.296875 C 26.472656 -9.578125 30.226562 -11.054688 33.78125 -12.734375 L 34.9375 -7.1875 C 30.28125 -4.59375 23.796875 -2.269531 15.484375 -0.21875 C 12.921875 0.4375 10.34375 1.003906 7.75 1.484375 L 2.640625 -3.1875 C -0.515625 3.914062 -2.859375 10.175781 -4.390625 15.59375 L -10.65625 11.375 C -6.15625 -2.175781 0.160156 -15.800781 8.296875 -29.5 L 13.84375 -25.421875 Z M 3.296875 -4.671875 C 7.253906 -5.296875 10.144531 -5.972656 11.96875 -6.703125 C 14.601562 -7.941406 16.691406 -10.578125 18.234375 -14.609375 C 18.742188 -15.847656 19.09375 -17.128906 19.28125 -18.453125 C 15.539062 -16.472656 12.113281 -14.347656 9 -12.078125 C 7.945312 -11.304688 6.816406 -10.46875 5.609375 -9.5625 Z M 3.296875 -4.671875 "/></g></g></g><g fill="#ff5055" fill-opacity="0.502"><g transform="translate(26.868978, 207.552526)"><g><path d="M 10.921875 -19.984375 C 13.335938 -22.148438 16.546875 -24.347656 20.546875 -26.578125 L 27.1875 -21.359375 C 26.894531 -18.429688 26.414062 -15.90625 25.75 -13.78125 C 25.09375 -11.65625 24.015625 -9.828125 22.515625 -8.296875 C 26.472656 -9.578125 30.226562 -11.054688 33.78125 -12.734375 L 34.9375 -7.1875 C 30.28125 -4.59375 23.796875 -2.269531 15.484375 -0.21875 C 12.921875 0.4375 10.34375 1.003906 7.75 1.484375 L 2.640625 -3.1875 C -0.515625 3.914062 -2.859375 10.175781 -4.390625 15.59375 L -10.65625 11.375 C -6.15625 -2.175781 0.160156 -15.800781 8.296875 -29.5 L 13.84375 -25.421875 Z M 3.296875 -4.671875 C 7.253906 -5.296875 10.144531 -5.972656 11.96875 -6.703125 C 14.601562 -7.941406 16.691406 -10.578125 18.234375 -14.609375 C 18.742188 -15.847656 19.09375 -17.128906 19.28125 -18.453125 C 15.539062 -16.472656 12.113281 -14.347656 9 -12.078125 C 7.945312 -11.304688 6.816406 -10.46875 5.609375 -9.5625 Z M 3.296875 -4.671875 "/></g></g></g><g fill="#ffffff" fill-opacity="1"><g transform="translate(24.441439, 205.124987)"><g><path d="M 10.921875 -19.984375 C 13.335938 -22.148438 16.546875 -24.347656 20.546875 -26.578125 L 27.1875 -21.359375 C 26.894531 -18.429688 26.414062 -15.90625 25.75 -13.78125 C 25.09375 -11.65625 24.015625 -9.828125 22.515625 -8.296875 C 26.472656 -9.578125 30.226562 -11.054688 33.78125 -12.734375 L 34.9375 -7.1875 C 30.28125 -4.59375 23.796875 -2.269531 15.484375 -0.21875 C 12.921875 0.4375 10.34375 1.003906 7.75 1.484375 L 2.640625 -3.1875 C -0.515625 3.914062 -2.859375 10.175781 -4.390625 15.59375 L -10.65625 11.375 C -6.15625 -2.175781 0.160156 -15.800781 8.296875 -29.5 L 13.84375 -25.421875 Z M 3.296875 -4.671875 C 7.253906 -5.296875 10.144531 -5.972656 11.96875 -6.703125 C 14.601562 -7.941406 16.691406 -10.578125 18.234375 -14.609375 C 18.742188 -15.847656 19.09375 -17.128906 19.28125 -18.453125 C 15.539062 -16.472656 12.113281 -14.347656 9 -12.078125 C 7.945312 -11.304688 6.816406 -10.46875 5.609375 -9.5625 Z M 3.296875 -4.671875 "/></g></g></g><g fill="#ff5055" fill-opacity="0.302"><g transform="translate(62.800423, 209.980064)"><g><path d="M 18.734375 -9.890625 C 16.023438 -11.640625 13.550781 -13.117188 11.3125 -14.328125 C 8.195312 -8.398438 5.65625 -3.09375 3.6875 1.59375 L -2.75 -4.28125 C -0.914062 -8.34375 1.445312 -12.882812 4.34375 -17.90625 L 0 -19.984375 L 3.734375 -26.421875 L 8.125 -24.328125 C 11.5 -29.816406 14.519531 -34.265625 17.1875 -37.671875 L 23.125 -32.34375 C 21.625 -30.375 18.988281 -26.515625 15.21875 -20.765625 C 17.5625 -19.441406 19.941406 -18.03125 22.359375 -16.53125 C 27.703125 -25.71875 32.054688 -32.4375 35.421875 -36.6875 L 41.359375 -31.359375 C 37.035156 -25.535156 32.878906 -19.109375 28.890625 -12.078125 L 33.5625 -8.625 L 29.265625 -2.359375 L 25.375 -5.328125 C 23.800781 -2.210938 22.535156 0.625 21.578125 3.1875 L 15.21875 -2.6875 C 16.09375 -4.664062 17.265625 -7.066406 18.734375 -9.890625 Z M 18.734375 -9.890625 "/></g></g></g><g fill="#ff5055" fill-opacity="0.302"><g transform="translate(102.887724, 209.980064)"><g><path d="M 11.09375 -14.0625 C 7.03125 -8.863281 3.828125 -3.644531 1.484375 1.59375 L -4.5 -3.953125 C -2.125 -8.421875 1.003906 -13.085938 4.890625 -17.953125 L 1.59375 -19.828125 L 6.3125 -25.765625 L 9.890625 -23.78125 C 14.359375 -28.539062 18.675781 -32.492188 22.84375 -35.640625 L 26.90625 -31.96875 C 27.457031 -34.238281 27.898438 -36.472656 28.234375 -38.671875 L 35.09375 -32.734375 C 32.9375 -21.742188 28.5625 -9.972656 21.96875 2.578125 L 15.703125 -3.125 C 16.878906 -5.25 17.722656 -6.804688 18.234375 -7.796875 C 16.222656 -10.035156 13.84375 -12.125 11.09375 -14.0625 Z M 15.875 -19.65625 C 17.851562 -18.15625 19.664062 -16.53125 21.3125 -14.78125 C 23.539062 -20.34375 25.1875 -25.226562 26.25 -29.4375 C 23.03125 -26.914062 19.570312 -23.65625 15.875 -19.65625 Z M 15.875 -19.65625 "/></g></g></g><g fill="#ff5055" fill-opacity="0.302"><g transform="translate(140.55881, 209.980064)"><g><path d="M 18.5625 -11.703125 C 20.757812 -8.179688 23.394531 -4.789062 26.46875 -1.53125 L 19.171875 3.1875 C 15.796875 -1.164062 12.554688 -6.363281 9.453125 -12.40625 C 6.921875 -8.050781 4.628906 -3.382812 2.578125 1.59375 L -3.625 -4.125 C -1.164062 -9.539062 1.03125 -13.84375 2.96875 -17.03125 C 6.113281 -22.257812 9.390625 -26.890625 12.796875 -30.921875 C 10.265625 -31.359375 7.976562 -31.578125 5.9375 -31.578125 L 8.296875 -38.109375 C 15.179688 -37.890625 21.164062 -36.992188 26.25 -35.421875 C 28.15625 -34.835938 30.078125 -34.125 32.015625 -33.28125 L 36.296875 -23.84375 C 32.566406 -18.894531 26.65625 -14.847656 18.5625 -11.703125 Z M 11.640625 -16.09375 C 16.617188 -18 21.050781 -20.394531 24.9375 -23.28125 C 26.25 -24.238281 27.382812 -25.210938 28.34375 -26.203125 C 24.863281 -28.023438 20.25 -29.488281 14.5 -30.59375 L 19.21875 -26.75 C 16.289062 -23.007812 13.765625 -19.457031 11.640625 -16.09375 Z M 11.640625 -16.09375 "/></g></g></g><g fill="#ff5055" fill-opacity="0.302"><g transform="translate(177.790582, 209.980064)"><g><path d="M 36.75 -22.625 C 30.445312 -14.351562 23.925781 -6.1875 17.1875 1.875 L 11.375 -3.1875 C 13.019531 -13.101562 14.628906 -20.882812 16.203125 -26.53125 C 12.242188 -20.226562 8.710938 -13.910156 5.609375 -7.578125 C 4.359375 -5.085938 3.019531 -2.304688 1.59375 0.765625 L -4.28125 -4.71875 C -0.875 -11.601562 1.976562 -16.929688 4.28125 -20.703125 C 8.3125 -27.222656 12.539062 -33.375 16.96875 -39.15625 L 25.046875 -32.078125 C 22.878906 -25.117188 21.269531 -18.398438 20.21875 -11.921875 C 26.03125 -18.984375 32.34375 -27.421875 39.15625 -37.234375 L 47.015625 -30.484375 C 44.816406 -23.378906 43.195312 -18.460938 42.15625 -15.734375 C 41.113281 -13.003906 40.222656 -10.722656 39.484375 -8.890625 C 38.171875 -5.597656 36.394531 -1.425781 34.15625 3.625 L 27.625 -1.703125 C 30.664062 -7.847656 32.804688 -12.492188 34.046875 -15.640625 C 35.296875 -18.796875 36.195312 -21.125 36.75 -22.625 Z M 36.75 -22.625 "/></g></g></g><g fill="#ff5055" fill-opacity="0.502"><g transform="translate(60.372882, 207.552526)"><g><path d="M 18.734375 -9.890625 C 16.023438 -11.640625 13.550781 -13.117188 11.3125 -14.328125 C 8.195312 -8.398438 5.65625 -3.09375 3.6875 1.59375 L -2.75 -4.28125 C -0.914062 -8.34375 1.445312 -12.882812 4.34375 -17.90625 L 0 -19.984375 L 3.734375 -26.421875 L 8.125 -24.328125 C 11.5 -29.816406 14.519531 -34.265625 17.1875 -37.671875 L 23.125 -32.34375 C 21.625 -30.375 18.988281 -26.515625 15.21875 -20.765625 C 17.5625 -19.441406 19.941406 -18.03125 22.359375 -16.53125 C 27.703125 -25.71875 32.054688 -32.4375 35.421875 -36.6875 L 41.359375 -31.359375 C 37.035156 -25.535156 32.878906 -19.109375 28.890625 -12.078125 L 33.5625 -8.625 L 29.265625 -2.359375 L 25.375 -5.328125 C 23.800781 -2.210938 22.535156 0.625 21.578125 3.1875 L 15.21875 -2.6875 C 16.09375 -4.664062 17.265625 -7.066406 18.734375 -9.890625 Z M 18.734375 -9.890625 "/></g></g></g><g fill="#ff5055" fill-opacity="0.502"><g transform="translate(100.460183, 207.552526)"><g><path d="M 11.09375 -14.0625 C 7.03125 -8.863281 3.828125 -3.644531 1.484375 1.59375 L -4.5 -3.953125 C -2.125 -8.421875 1.003906 -13.085938 4.890625 -17.953125 L 1.59375 -19.828125 L 6.3125 -25.765625 L 9.890625 -23.78125 C 14.359375 -28.539062 18.675781 -32.492188 22.84375 -35.640625 L 26.90625 -31.96875 C 27.457031 -34.238281 27.898438 -36.472656 28.234375 -38.671875 L 35.09375 -32.734375 C 32.9375 -21.742188 28.5625 -9.972656 21.96875 2.578125 L 15.703125 -3.125 C 16.878906 -5.25 17.722656 -6.804688 18.234375 -7.796875 C 16.222656 -10.035156 13.84375 -12.125 11.09375 -14.0625 Z M 15.875 -19.65625 C 17.851562 -18.15625 19.664062 -16.53125 21.3125 -14.78125 C 23.539062 -20.34375 25.1875 -25.226562 26.25 -29.4375 C 23.03125 -26.914062 19.570312 -23.65625 15.875 -19.65625 Z M 15.875 -19.65625 "/></g></g></g><g fill="#ff5055" fill-opacity="0.502"><g transform="translate(138.13127, 207.552526)"><g><path d="M 18.5625 -11.703125 C 20.757812 -8.179688 23.394531 -4.789062 26.46875 -1.53125 L 19.171875 3.1875 C 15.796875 -1.164062 12.554688 -6.363281 9.453125 -12.40625 C 6.921875 -8.050781 4.628906 -3.382812 2.578125 1.59375 L -3.625 -4.125 C -1.164062 -9.539062 1.03125 -13.84375 2.96875 -17.03125 C 6.113281 -22.257812 9.390625 -26.890625 12.796875 -30.921875 C 10.265625 -31.359375 7.976562 -31.578125 5.9375 -31.578125 L 8.296875 -38.109375 C 15.179688 -37.890625 21.164062 -36.992188 26.25 -35.421875 C 28.15625 -34.835938 30.078125 -34.125 32.015625 -33.28125 L 36.296875 -23.84375 C 32.566406 -18.894531 26.65625 -14.847656 18.5625 -11.703125 Z M 11.640625 -16.09375 C 16.617188 -18 21.050781 -20.394531 24.9375 -23.28125 C 26.25 -24.238281 27.382812 -25.210938 28.34375 -26.203125 C 24.863281 -28.023438 20.25 -29.488281 14.5 -30.59375 L 19.21875 -26.75 C 16.289062 -23.007812 13.765625 -19.457031 11.640625 -16.09375 Z M 11.640625 -16.09375 "/></g></g></g><g fill="#ff5055" fill-opacity="0.502"><g transform="translate(175.363041, 207.552526)"><g><path d="M 36.75 -22.625 C 30.445312 -14.351562 23.925781 -6.1875 17.1875 1.875 L 11.375 -3.1875 C 13.019531 -13.101562 14.628906 -20.882812 16.203125 -26.53125 C 12.242188 -20.226562 8.710938 -13.910156 5.609375 -7.578125 C 4.359375 -5.085938 3.019531 -2.304688 1.59375 0.765625 L -4.28125 -4.71875 C -0.875 -11.601562 1.976562 -16.929688 4.28125 -20.703125 C 8.3125 -27.222656 12.539062 -33.375 16.96875 -39.15625 L 25.046875 -32.078125 C 22.878906 -25.117188 21.269531 -18.398438 20.21875 -11.921875 C 26.03125 -18.984375 32.34375 -27.421875 39.15625 -37.234375 L 47.015625 -30.484375 C 44.816406 -23.378906 43.195312 -18.460938 42.15625 -15.734375 C 41.113281 -13.003906 40.222656 -10.722656 39.484375 -8.890625 C 38.171875 -5.597656 36.394531 -1.425781 34.15625 3.625 L 27.625 -1.703125 C 30.664062 -7.847656 32.804688 -12.492188 34.046875 -15.640625 C 35.296875 -18.796875 36.195312 -21.125 36.75 -22.625 Z M 36.75 -22.625 "/></g></g></g><g fill="#ffd200" fill-opacity="1"><g transform="translate(57.945343, 205.124987)"><g><path d="M 18.734375 -9.890625 C 16.023438 -11.640625 13.550781 -13.117188 11.3125 -14.328125 C 8.195312 -8.398438 5.65625 -3.09375 3.6875 1.59375 L -2.75 -4.28125 C -0.914062 -8.34375 1.445312 -12.882812 4.34375 -17.90625 L 0 -19.984375 L 3.734375 -26.421875 L 8.125 -24.328125 C 11.5 -29.816406 14.519531 -34.265625 17.1875 -37.671875 L 23.125 -32.34375 C 21.625 -30.375 18.988281 -26.515625 15.21875 -20.765625 C 17.5625 -19.441406 19.941406 -18.03125 22.359375 -16.53125 C 27.703125 -25.71875 32.054688 -32.4375 35.421875 -36.6875 L 41.359375 -31.359375 C 37.035156 -25.535156 32.878906 -19.109375 28.890625 -12.078125 L 33.5625 -8.625 L 29.265625 -2.359375 L 25.375 -5.328125 C 23.800781 -2.210938 22.535156 0.625 21.578125 3.1875 L 15.21875 -2.6875 C 16.09375 -4.664062 17.265625 -7.066406 18.734375 -9.890625 Z M 18.734375 -9.890625 "/></g></g></g><g fill="#ffd200" fill-opacity="1"><g transform="translate(98.032644, 205.124987)"><g><path d="M 11.09375 -14.0625 C 7.03125 -8.863281 3.828125 -3.644531 1.484375 1.59375 L -4.5 -3.953125 C -2.125 -8.421875 1.003906 -13.085938 4.890625 -17.953125 L 1.59375 -19.828125 L 6.3125 -25.765625 L 9.890625 -23.78125 C 14.359375 -28.539062 18.675781 -32.492188 22.84375 -35.640625 L 26.90625 -31.96875 C 27.457031 -34.238281 27.898438 -36.472656 28.234375 -38.671875 L 35.09375 -32.734375 C 32.9375 -21.742188 28.5625 -9.972656 21.96875 2.578125 L 15.703125 -3.125 C 16.878906 -5.25 17.722656 -6.804688 18.234375 -7.796875 C 16.222656 -10.035156 13.84375 -12.125 11.09375 -14.0625 Z M 15.875 -19.65625 C 17.851562 -18.15625 19.664062 -16.53125 21.3125 -14.78125 C 23.539062 -20.34375 25.1875 -25.226562 26.25 -29.4375 C 23.03125 -26.914062 19.570312 -23.65625 15.875 -19.65625 Z M 15.875 -19.65625 "/></g></g></g><g fill="#ffd200" fill-opacity="1"><g transform="translate(135.703731, 205.124987)"><g><path d="M 18.5625 -11.703125 C 20.757812 -8.179688 23.394531 -4.789062 26.46875 -1.53125 L 19.171875 3.1875 C 15.796875 -1.164062 12.554688 -6.363281 9.453125 -12.40625 C 6.921875 -8.050781 4.628906 -3.382812 2.578125 1.59375 L -3.625 -4.125 C -1.164062 -9.539062 1.03125 -13.84375 2.96875 -17.03125 C 6.113281 -22.257812 9.390625 -26.890625 12.796875 -30.921875 C 10.265625 -31.359375 7.976562 -31.578125 5.9375 -31.578125 L 8.296875 -38.109375 C 15.179688 -37.890625 21.164062 -36.992188 26.25 -35.421875 C 28.15625 -34.835938 30.078125 -34.125 32.015625 -33.28125 L 36.296875 -23.84375 C 32.566406 -18.894531 26.65625 -14.847656 18.5625 -11.703125 Z M 11.640625 -16.09375 C 16.617188 -18 21.050781 -20.394531 24.9375 -23.28125 C 26.25 -24.238281 27.382812 -25.210938 28.34375 -26.203125 C 24.863281 -28.023438 20.25 -29.488281 14.5 -30.59375 L 19.21875 -26.75 C 16.289062 -23.007812 13.765625 -19.457031 11.640625 -16.09375 Z M 11.640625 -16.09375 "/></g></g></g><g fill="#ffd200" fill-opacity="1"><g transform="translate(172.935502, 205.124987)"><g><path d="M 36.75 -22.625 C 30.445312 -14.351562 23.925781 -6.1875 17.1875 1.875 L 11.375 -3.1875 C 13.019531 -13.101562 14.628906 -20.882812 16.203125 -26.53125 C 12.242188 -20.226562 8.710938 -13.910156 5.609375 -7.578125 C 4.359375 -5.085938 3.019531 -2.304688 1.59375 0.765625 L -4.28125 -4.71875 C -0.875 -11.601562 1.976562 -16.929688 4.28125 -20.703125 C 8.3125 -27.222656 12.539062 -33.375 16.96875 -39.15625 L 25.046875 -32.078125 C 22.878906 -25.117188 21.269531 -18.398438 20.21875 -11.921875 C 26.03125 -18.984375 32.34375 -27.421875 39.15625 -37.234375 L 47.015625 -30.484375 C 44.816406 -23.378906 43.195312 -18.460938 42.15625 -15.734375 C 41.113281 -13.003906 40.222656 -10.722656 39.484375 -8.890625 C 38.171875 -5.597656 36.394531 -1.425781 34.15625 3.625 L 27.625 -1.703125 C 30.664062 -7.847656 32.804688 -12.492188 34.046875 -15.640625 C 35.296875 -18.796875 36.195312 -21.125 36.75 -22.625 Z M 36.75 -22.625 "/></g></g></g><g fill="#ff5055" fill-opacity="0.302"><g transform="translate(226.722287, 209.980064)"><g><path d="M 14.9375 -3.453125 C 12.039062 -1.191406 8.707031 0.453125 4.9375 1.484375 L -1.875 -4.828125 C -1.875 -7.722656 -1.429688 -10.5625 -0.546875 -13.34375 C 0.328125 -16.125 1.625 -18.628906 3.34375 -20.859375 C 5.070312 -23.097656 7.207031 -24.957031 9.75 -26.4375 C 12.289062 -27.925781 15.226562 -28.816406 18.5625 -29.109375 L 22.1875 -23.5625 C 22.625 -24.257812 23.554688 -25.46875 24.984375 -27.1875 L 30.375 -22.578125 C 26.75 -17.847656 23.742188 -12.796875 21.359375 -7.421875 L 21.203125 -7.296875 C 23.328125 -7.847656 25.816406 -8.789062 28.671875 -10.125 C 31.523438 -11.46875 33.335938 -12.335938 34.109375 -12.734375 L 35.3125 -7.1875 C 33.15625 -5.613281 29.566406 -3.582031 24.546875 -1.09375 C 22.566406 -0.101562 20.773438 0.679688 19.171875 1.265625 Z M 5.828125 -6.421875 C 9.742188 -7.484375 13.3125 -10.082031 16.53125 -14.21875 C 17.476562 -16.3125 18.191406 -18.914062 18.671875 -22.03125 C 14.898438 -21.65625 11.804688 -19.988281 9.390625 -17.03125 C 7.015625 -14.09375 5.828125 -10.554688 5.828125 -6.421875 Z M 5.828125 -6.421875 "/></g></g></g><g fill="#ff5055" fill-opacity="0.302"><g transform="translate(260.549383, 209.980064)"><g><path d="M 6.046875 -5.65625 C 15.015625 -6.832031 22.8125 -9.191406 29.4375 -12.734375 L 30.640625 -7.1875 C 25.003906 -3.644531 18.742188 -1.066406 11.859375 0.546875 C 9.554688 1.054688 7.285156 1.367188 5.046875 1.484375 L -1.75 -4.828125 C -1.75 -7.429688 -1.585938 -9.445312 -1.265625 -10.875 C 0.160156 -16.914062 3.660156 -21.785156 9.234375 -25.484375 C 11.722656 -27.128906 14.25 -28.351562 16.8125 -29.15625 L 25.59375 -22.625 C 25.40625 -21.78125 24.894531 -20.445312 24.0625 -18.625 C 22.664062 -15.539062 21.566406 -13.429688 20.765625 -12.296875 L 13.84375 -16.703125 C 15.820312 -19.191406 17.066406 -21.273438 17.578125 -22.953125 C 14.054688 -21.453125 11.195312 -19.035156 9 -15.703125 C 7.03125 -12.703125 6.046875 -9.351562 6.046875 -5.65625 Z M 6.046875 -5.65625 "/></g></g></g><g fill="#ff5055" fill-opacity="0.302"><g transform="translate(289.708778, 209.980064)"><g><path d="M 21.09375 -8.078125 C 27.019531 -9.796875 31.175781 -11.347656 33.5625 -12.734375 L 34.765625 -7.1875 C 31.835938 -5 28.5625 -3.003906 24.9375 -1.203125 C 23.65625 -0.546875 22.535156 -0.0507812 21.578125 0.28125 L 18.890625 -2.6875 C 17.867188 1.957031 16.660156 5.671875 15.265625 8.453125 C 13.953125 11.015625 12.085938 13.578125 9.671875 16.140625 C 5.640625 16.035156 1.226562 15.394531 -3.5625 14.21875 C -5.070312 13.851562 -6.445312 13.453125 -7.6875 13.015625 L -8.015625 3.953125 C -5.566406 1.796875 -2.835938 -0.03125 0.171875 -1.53125 L -3.015625 -3.84375 C -2.691406 -8.675781 -0.1875 -14.898438 4.5 -22.515625 C 5.96875 -24.898438 7.582031 -27.28125 9.34375 -29.65625 L 15.046875 -25.3125 C 8.640625 -16.3125 5.179688 -9.6875 4.671875 -5.4375 C 6.609375 -5.726562 8.164062 -6.1875 9.34375 -6.8125 C 11.6875 -8.050781 13.550781 -9.863281 14.9375 -12.25 C 18.082031 -18.539062 20.898438 -23.445312 23.390625 -26.96875 L 29.21875 -22.40625 C 25.632812 -16.914062 22.925781 -12.140625 21.09375 -8.078125 Z M -2.46875 7.96875 C 0.894531 8.726562 3.675781 9.148438 5.875 9.234375 C 8.257812 7.210938 10.128906 4.039062 11.484375 -0.28125 C 5.515625 2.132812 0.863281 4.882812 -2.46875 7.96875 Z M -2.46875 7.96875 "/></g></g></g><g fill="#ff5055" fill-opacity="0.302"><g transform="translate(322.98673, 209.980064)"><g><path d="M 6.375 -35.3125 C 14.207031 -38.863281 21.179688 -39.925781 27.296875 -38.5 L 32.234375 -30.859375 C 31.796875 -26.691406 30.203125 -23.21875 27.453125 -20.4375 C 26.253906 -19.226562 24.945312 -18.144531 23.53125 -17.1875 C 22.125 -16.238281 20.742188 -15.296875 19.390625 -14.359375 C 18.035156 -13.429688 16.78125 -12.414062 15.625 -11.3125 C 14.46875 -10.21875 13.5625 -8.921875 12.90625 -7.421875 L 6.421875 -12.1875 C 7.484375 -14.644531 9.476562 -16.953125 12.40625 -19.109375 C 13.65625 -19.992188 14.921875 -20.835938 16.203125 -21.640625 C 17.484375 -22.441406 18.671875 -23.285156 19.765625 -24.171875 C 22.222656 -26.210938 23.671875 -28.609375 24.109375 -31.359375 C 20.148438 -31.910156 14.96875 -30.921875 8.5625 -28.390625 Z M 0.5 -0.515625 C 0.5 -1.960938 0.988281 -3.179688 1.96875 -4.171875 C 2.957031 -5.160156 4.171875 -5.65625 5.609375 -5.65625 C 7.035156 -5.65625 8.238281 -5.160156 9.21875 -4.171875 C 10.207031 -3.179688 10.703125 -1.972656 10.703125 -0.546875 C 10.703125 1.648438 9.660156 3.222656 7.578125 4.171875 C 5.523438 5.046875 3.660156 4.679688 1.984375 3.078125 C 0.992188 2.117188 0.5 0.921875 0.5 -0.515625 Z M 0.5 -0.515625 "/></g></g></g><g fill="#ff5055" fill-opacity="0.502"><g transform="translate(224.294746, 207.552526)"><g><path d="M 14.9375 -3.453125 C 12.039062 -1.191406 8.707031 0.453125 4.9375 1.484375 L -1.875 -4.828125 C -1.875 -7.722656 -1.429688 -10.5625 -0.546875 -13.34375 C 0.328125 -16.125 1.625 -18.628906 3.34375 -20.859375 C 5.070312 -23.097656 7.207031 -24.957031 9.75 -26.4375 C 12.289062 -27.925781 15.226562 -28.816406 18.5625 -29.109375 L 22.1875 -23.5625 C 22.625 -24.257812 23.554688 -25.46875 24.984375 -27.1875 L 30.375 -22.578125 C 26.75 -17.847656 23.742188 -12.796875 21.359375 -7.421875 L 21.203125 -7.296875 C 23.328125 -7.847656 25.816406 -8.789062 28.671875 -10.125 C 31.523438 -11.46875 33.335938 -12.335938 34.109375 -12.734375 L 35.3125 -7.1875 C 33.15625 -5.613281 29.566406 -3.582031 24.546875 -1.09375 C 22.566406 -0.101562 20.773438 0.679688 19.171875 1.265625 Z M 5.828125 -6.421875 C 9.742188 -7.484375 13.3125 -10.082031 16.53125 -14.21875 C 17.476562 -16.3125 18.191406 -18.914062 18.671875 -22.03125 C 14.898438 -21.65625 11.804688 -19.988281 9.390625 -17.03125 C 7.015625 -14.09375 5.828125 -10.554688 5.828125 -6.421875 Z M 5.828125 -6.421875 "/></g></g></g><g fill="#ff5055" fill-opacity="0.502"><g transform="translate(258.121843, 207.552526)"><g><path d="M 6.046875 -5.65625 C 15.015625 -6.832031 22.8125 -9.191406 29.4375 -12.734375 L 30.640625 -7.1875 C 25.003906 -3.644531 18.742188 -1.066406 11.859375 0.546875 C 9.554688 1.054688 7.285156 1.367188 5.046875 1.484375 L -1.75 -4.828125 C -1.75 -7.429688 -1.585938 -9.445312 -1.265625 -10.875 C 0.160156 -16.914062 3.660156 -21.785156 9.234375 -25.484375 C 11.722656 -27.128906 14.25 -28.351562 16.8125 -29.15625 L 25.59375 -22.625 C 25.40625 -21.78125 24.894531 -20.445312 24.0625 -18.625 C 22.664062 -15.539062 21.566406 -13.429688 20.765625 -12.296875 L 13.84375 -16.703125 C 15.820312 -19.191406 17.066406 -21.273438 17.578125 -22.953125 C 14.054688 -21.453125 11.195312 -19.035156 9 -15.703125 C 7.03125 -12.703125 6.046875 -9.351562 6.046875 -5.65625 Z M 6.046875 -5.65625 "/></g></g></g><g fill="#ff5055" fill-opacity="0.502"><g transform="translate(287.281238, 207.552526)"><g><path d="M 21.09375 -8.078125 C 27.019531 -9.796875 31.175781 -11.347656 33.5625 -12.734375 L 34.765625 -7.1875 C 31.835938 -5 28.5625 -3.003906 24.9375 -1.203125 C 23.65625 -0.546875 22.535156 -0.0507812 21.578125 0.28125 L 18.890625 -2.6875 C 17.867188 1.957031 16.660156 5.671875 15.265625 8.453125 C 13.953125 11.015625 12.085938 13.578125 9.671875 16.140625 C 5.640625 16.035156 1.226562 15.394531 -3.5625 14.21875 C -5.070312 13.851562 -6.445312 13.453125 -7.6875 13.015625 L -8.015625 3.953125 C -5.566406 1.796875 -2.835938 -0.03125 0.171875 -1.53125 L -3.015625 -3.84375 C -2.691406 -8.675781 -0.1875 -14.898438 4.5 -22.515625 C 5.96875 -24.898438 7.582031 -27.28125 9.34375 -29.65625 L 15.046875 -25.3125 C 8.640625 -16.3125 5.179688 -9.6875 4.671875 -5.4375 C 6.609375 -5.726562 8.164062 -6.1875 9.34375 -6.8125 C 11.6875 -8.050781 13.550781 -9.863281 14.9375 -12.25 C 18.082031 -18.539062 20.898438 -23.445312 23.390625 -26.96875 L 29.21875 -22.40625 C 25.632812 -16.914062 22.925781 -12.140625 21.09375 -8.078125 Z M -2.46875 7.96875 C 0.894531 8.726562 3.675781 9.148438 5.875 9.234375 C 8.257812 7.210938 10.128906 4.039062 11.484375 -0.28125 C 5.515625 2.132812 0.863281 4.882812 -2.46875 7.96875 Z M -2.46875 7.96875 "/></g></g></g><g fill="#ff5055" fill-opacity="0.502"><g transform="translate(320.559189, 207.552526)"><g><path d="M 6.375 -35.3125 C 14.207031 -38.863281 21.179688 -39.925781 27.296875 -38.5 L 32.234375 -30.859375 C 31.796875 -26.691406 30.203125 -23.21875 27.453125 -20.4375 C 26.253906 -19.226562 24.945312 -18.144531 23.53125 -17.1875 C 22.125 -16.238281 20.742188 -15.296875 19.390625 -14.359375 C 18.035156 -13.429688 16.78125 -12.414062 15.625 -11.3125 C 14.46875 -10.21875 13.5625 -8.921875 12.90625 -7.421875 L 6.421875 -12.1875 C 7.484375 -14.644531 9.476562 -16.953125 12.40625 -19.109375 C 13.65625 -19.992188 14.921875 -20.835938 16.203125 -21.640625 C 17.484375 -22.441406 18.671875 -23.285156 19.765625 -24.171875 C 22.222656 -26.210938 23.671875 -28.609375 24.109375 -31.359375 C 20.148438 -31.910156 14.96875 -30.921875 8.5625 -28.390625 Z M 0.5 -0.515625 C 0.5 -1.960938 0.988281 -3.179688 1.96875 -4.171875 C 2.957031 -5.160156 4.171875 -5.65625 5.609375 -5.65625 C 7.035156 -5.65625 8.238281 -5.160156 9.21875 -4.171875 C 10.207031 -3.179688 10.703125 -1.972656 10.703125 -0.546875 C 10.703125 1.648438 9.660156 3.222656 7.578125 4.171875 C 5.523438 5.046875 3.660156 4.679688 1.984375 3.078125 C 0.992188 2.117188 0.5 0.921875 0.5 -0.515625 Z M 0.5 -0.515625 "/></g></g></g><g fill="#ffffff" fill-opacity="1"><g transform="translate(221.867207, 205.124987)"><g><path d="M 14.9375 -3.453125 C 12.039062 -1.191406 8.707031 0.453125 4.9375 1.484375 L -1.875 -4.828125 C -1.875 -7.722656 -1.429688 -10.5625 -0.546875 -13.34375 C 0.328125 -16.125 1.625 -18.628906 3.34375 -20.859375 C 5.070312 -23.097656 7.207031 -24.957031 9.75 -26.4375 C 12.289062 -27.925781 15.226562 -28.816406 18.5625 -29.109375 L 22.1875 -23.5625 C 22.625 -24.257812 23.554688 -25.46875 24.984375 -27.1875 L 30.375 -22.578125 C 26.75 -17.847656 23.742188 -12.796875 21.359375 -7.421875 L 21.203125 -7.296875 C 23.328125 -7.847656 25.816406 -8.789062 28.671875 -10.125 C 31.523438 -11.46875 33.335938 -12.335938 34.109375 -12.734375 L 35.3125 -7.1875 C 33.15625 -5.613281 29.566406 -3.582031 24.546875 -1.09375 C 22.566406 -0.101562 20.773438 0.679688 19.171875 1.265625 Z M 5.828125 -6.421875 C 9.742188 -7.484375 13.3125 -10.082031 16.53125 -14.21875 C 17.476562 -16.3125 18.191406 -18.914062 18.671875 -22.03125 C 14.898438 -21.65625 11.804688 -19.988281 9.390625 -17.03125 C 7.015625 -14.09375 5.828125 -10.554688 5.828125 -6.421875 Z M 5.828125 -6.421875 "/></g></g></g><g fill="#ffffff" fill-opacity="1"><g transform="translate(255.694304, 205.124987)"><g><path d="M 6.046875 -5.65625 C 15.015625 -6.832031 22.8125 -9.191406 29.4375 -12.734375 L 30.640625 -7.1875 C 25.003906 -3.644531 18.742188 -1.066406 11.859375 0.546875 C 9.554688 1.054688 7.285156 1.367188 5.046875 1.484375 L -1.75 -4.828125 C -1.75 -7.429688 -1.585938 -9.445312 -1.265625 -10.875 C 0.160156 -16.914062 3.660156 -21.785156 9.234375 -25.484375 C 11.722656 -27.128906 14.25 -28.351562 16.8125 -29.15625 L 25.59375 -22.625 C 25.40625 -21.78125 24.894531 -20.445312 24.0625 -18.625 C 22.664062 -15.539062 21.566406 -13.429688 20.765625 -12.296875 L 13.84375 -16.703125 C 15.820312 -19.191406 17.066406 -21.273438 17.578125 -22.953125 C 14.054688 -21.453125 11.195312 -19.035156 9 -15.703125 C 7.03125 -12.703125 6.046875 -9.351562 6.046875 -5.65625 Z M 6.046875 -5.65625 "/></g></g></g><g fill="#ffffff" fill-opacity="1"><g transform="translate(284.853699, 205.124987)"><g><path d="M 21.09375 -8.078125 C 27.019531 -9.796875 31.175781 -11.347656 33.5625 -12.734375 L 34.765625 -7.1875 C 31.835938 -5 28.5625 -3.003906 24.9375 -1.203125 C 23.65625 -0.546875 22.535156 -0.0507812 21.578125 0.28125 L 18.890625 -2.6875 C 17.867188 1.957031 16.660156 5.671875 15.265625 8.453125 C 13.953125 11.015625 12.085938 13.578125 9.671875 16.140625 C 5.640625 16.035156 1.226562 15.394531 -3.5625 14.21875 C -5.070312 13.851562 -6.445312 13.453125 -7.6875 13.015625 L -8.015625 3.953125 C -5.566406 1.796875 -2.835938 -0.03125 0.171875 -1.53125 L -3.015625 -3.84375 C -2.691406 -8.675781 -0.1875 -14.898438 4.5 -22.515625 C 5.96875 -24.898438 7.582031 -27.28125 9.34375 -29.65625 L 15.046875 -25.3125 C 8.640625 -16.3125 5.179688 -9.6875 4.671875 -5.4375 C 6.609375 -5.726562 8.164062 -6.1875 9.34375 -6.8125 C 11.6875 -8.050781 13.550781 -9.863281 14.9375 -12.25 C 18.082031 -18.539062 20.898438 -23.445312 23.390625 -26.96875 L 29.21875 -22.40625 C 25.632812 -16.914062 22.925781 -12.140625 21.09375 -8.078125 Z M -2.46875 7.96875 C 0.894531 8.726562 3.675781 9.148438 5.875 9.234375 C 8.257812 7.210938 10.128906 4.039062 11.484375 -0.28125 C 5.515625 2.132812 0.863281 4.882812 -2.46875 7.96875 Z M -2.46875 7.96875 "/></g></g></g><g fill="#ffffff" fill-opacity="1"><g transform="translate(318.13165, 205.124987)"><g><path d="M 6.375 -35.3125 C 14.207031 -38.863281 21.179688 -39.925781 27.296875 -38.5 L 32.234375 -30.859375 C 31.796875 -26.691406 30.203125 -23.21875 27.453125 -20.4375 C 26.253906 -19.226562 24.945312 -18.144531 23.53125 -17.1875 C 22.125 -16.238281 20.742188 -15.296875 19.390625 -14.359375 C 18.035156 -13.429688 16.78125 -12.414062 15.625 -11.3125 C 14.46875 -10.21875 13.5625 -8.921875 12.90625 -7.421875 L 6.421875 -12.1875 C 7.484375 -14.644531 9.476562 -16.953125 12.40625 -19.109375 C 13.65625 -19.992188 14.921875 -20.835938 16.203125 -21.640625 C 17.484375 -22.441406 18.671875 -23.285156 19.765625 -24.171875 C 22.222656 -26.210938 23.671875 -28.609375 24.109375 -31.359375 C 20.148438 -31.910156 14.96875 -30.921875 8.5625 -28.390625 Z M 0.5 -0.515625 C 0.5 -1.960938 0.988281 -3.179688 1.96875 -4.171875 C 2.957031 -5.160156 4.171875 -5.65625 5.609375 -5.65625 C 7.035156 -5.65625 8.238281 -5.160156 9.21875 -4.171875 C 10.207031 -3.179688 10.703125 -1.972656 10.703125 -0.546875 C 10.703125 1.648438 9.660156 3.222656 7.578125 4.171875 C 5.523438 5.046875 3.660156 4.679688 1.984375 3.078125 C 0.992188 2.117188 0.5 0.921875 0.5 -0.515625 Z M 0.5 -0.515625 "/></g></g></g></svg>